<svg width="26" height="26" viewBox="0 0 26 26" fill="none" xmlns="http://www.w3.org/2000/svg">
<g opacity="0.7" clip-path="url(#clip0)">
<path d="M9.11983e-08 13.0202C4.09108e-08 17.2373 3.43071 20.668 7.64774 20.668L18.3523 20.668C22.5693 20.668 26 17.2373 26 13.0202C26 8.80321 22.5693 5.3725 18.3523 5.3725L7.64774 5.3725C3.43071 5.3725 1.41486e-07 8.80321 9.11983e-08 13.0202ZM18.3523 6.93243C21.709 6.93243 24.4401 9.66351 24.4401 13.0202C24.4401 16.377 21.709 19.108 18.3523 19.108L7.64774 19.108C4.29102 19.108 1.55994 16.377 1.55994 13.0202C1.55994 9.66351 4.29102 6.93243 7.64774 6.93243L18.3523 6.93243Z" fill="white"/>
<path d="M5.17188 13.0198C5.17188 13.4507 5.521 13.7998 5.95184 13.7998L9.54184 13.7998C9.97249 13.7998 10.3218 13.4507 10.3218 13.0198C10.3218 12.5892 9.97249 12.2399 9.54184 12.2399L5.95184 12.2399C5.521 12.2399 5.17188 12.589 5.17188 13.0198Z" fill="white"/>
</g>
<defs>
<clipPath id="clip0">
<rect width="26" height="26" fill="white" transform="translate(0 26) rotate(-90)"/>
</clipPath>
</defs>
</svg>
