<svg width="22" height="22" viewBox="0 0 22 22" fill="none" xmlns="http://www.w3.org/2000/svg">
<g opacity="0.6" clip-path="url(#clip0)">
<path d="M18.2554 11.9425C17.8998 11.4933 18.0015 11.2935 18.2554 10.892C18.26 10.8874 21.1961 6.83025 21.4986 5.45433L21.5004 5.45341C21.6508 4.952 21.5004 4.5835 20.7735 4.5835H18.3682C17.7558 4.5835 17.4735 4.89975 17.3223 5.25358C17.3223 5.25358 16.0976 8.18508 14.3651 10.0853C13.8059 10.6344 13.5474 10.8104 13.2422 10.8104C13.0918 10.8104 12.8581 10.6344 12.8581 10.133V5.45341C12.8581 4.85208 12.6867 4.5835 12.1798 4.5835H8.39758C8.0135 4.5835 7.78525 4.864 7.78525 5.12525C7.78525 5.69541 8.6515 5.8265 8.74133 7.43066V10.9112C8.74133 11.6739 8.60292 11.8142 8.29583 11.8142C7.47817 11.8142 5.49358 8.87075 4.3175 5.502C4.08008 4.84841 3.84817 4.58441 3.23125 4.58441H0.825C0.138417 4.58441 0 4.90066 0 5.2545C0 5.87966 0.817666 8.98808 3.80233 13.0947C5.7915 15.8979 8.59283 17.4168 11.1412 17.4168C12.6729 17.4168 12.8599 17.0795 12.8599 16.4992C12.8599 13.8207 12.7215 13.5677 13.4888 13.5677C13.8444 13.5677 14.4568 13.7437 15.8868 15.0958C17.5212 16.6991 17.7898 17.4168 18.7046 17.4168H21.1099C21.7956 17.4168 22.143 17.0795 21.9432 16.414C21.4858 15.0142 18.3948 12.135 18.2554 11.9425Z" fill="white"/>
</g>
<defs>
<clipPath id="clip0">
<rect width="22" height="22" fill="white"/>
</clipPath>
</defs>
</svg>
