<svg width="15" height="15" fill="none" xmlns="http://www.w3.org/2000/svg"><g clip-path="url(#clip0)"><path d="M7.5 15a7.5 7.5 0 100-15 7.5 7.5 0 000 15z" fill="#41B4E6"/><path d="M15 7.5c0-.183-.007-.364-.02-.543l-3.108-3.109-8.744 3.44 3.345 3.345.044.158.057-.057-.057.057 3.7 3.7A7.502 7.502 0 0015 7.5z" fill="#0091C8"/><path d="M6.771 8.593l3.39 2.559 1.71-7.304-8.743 3.44 2.66.881 4.856-3.257-3.873 3.68z" fill="#fff"/><path d="M5.789 8.17l.728 2.621.254-2.198 3.873-3.68L5.79 8.168z" fill="#D2D2D7"/><path d="M7.873 9.424l-1.355 1.367.254-2.198 1.101.831z" fill="#B9B9BE"/></g><defs><clipPath id="clip0"><path fill="#fff" d="M0 0h15v15H0z"/></clipPath></defs></svg>