<svg width="18" height="16" viewBox="0 0 18 16" fill="none" xmlns="http://www.w3.org/2000/svg">
<path d="M17.476 2.19936C17.4749 2.19936 17.4738 2.19922 17.4727 2.19922H12.6914V1.67188C12.6914 0.799561 11.9817 0.0898438 11.1094 0.0898438H6.89062C6.01831 0.0898438 5.30859 0.799561 5.30859 1.67188V2.19922H0.527344C0.233734 2.19922 0 2.43982 0 2.72656V14.3281C0 15.2004 0.709717 15.9102 1.58203 15.9102H16.418C17.2903 15.9102 18 15.2004 18 14.3281V2.73769C18 2.737 18 2.73631 18 2.73563C17.9798 2.38928 17.7668 2.20128 17.476 2.19936ZM6.36328 1.67188C6.36328 1.38115 6.5999 1.14453 6.89062 1.14453H11.1094C11.4001 1.14453 11.6367 1.38115 11.6367 1.67188V2.19922H6.36328V1.67188ZM16.741 3.25391L15.1033 8.16672C15.0315 8.38246 14.8304 8.52734 14.6032 8.52734H11.6367V8C11.6367 7.70872 11.4007 7.47266 11.1094 7.47266H6.89062C6.59935 7.47266 6.36328 7.70872 6.36328 8V8.52734H3.39684C3.16956 8.52734 2.96851 8.38246 2.89668 8.16672L1.25903 3.25391H16.741ZM10.582 8.52734V9.58203H7.41797V8.52734H10.582ZM16.9453 14.3281C16.9453 14.6189 16.7087 14.8555 16.418 14.8555H1.58203C1.29131 14.8555 1.05469 14.6189 1.05469 14.3281V5.97618L1.8961 8.50029C2.11171 9.14738 2.71486 9.58203 3.39684 9.58203H6.36328V10.1094C6.36328 10.4007 6.59935 10.6367 6.89062 10.6367H11.1094C11.4007 10.6367 11.6367 10.4007 11.6367 10.1094V9.58203H14.6032C15.2851 9.58203 15.8883 9.14738 16.1039 8.50029L16.9453 5.97618V14.3281Z" fill="white"/>
</svg>
