<svg width="18" height="18" viewBox="0 0 18 18" fill="none" xmlns="http://www.w3.org/2000/svg">
<path d="M15.2454 11.636C14.2727 10.6558 13.115 9.93013 11.8518 9.49085C13.2047 8.55179 14.0935 6.9802 14.0935 5.20312C14.0935 2.33413 11.7774 0 8.93056 0C6.0837 0 3.76758 2.33413 3.76758 5.20312C3.76758 6.9802 4.65642 8.55179 6.00936 9.49085C4.74617 9.93013 3.58841 10.6558 2.61571 11.636C0.928953 13.3359 0 15.596 0 18H1.3954C1.3954 13.8128 4.77565 10.4062 8.93056 10.4062C13.0855 10.4062 16.4657 13.8128 16.4657 18H17.8611C17.8611 15.596 16.9322 13.3359 15.2454 11.636ZM8.93056 9C6.85313 9 5.16298 7.29675 5.16298 5.20312C5.16298 3.1095 6.85313 1.40625 8.93056 1.40625C11.008 1.40625 12.6981 3.1095 12.6981 5.20312C12.6981 7.29675 11.008 9 8.93056 9Z" fill="white"/>
</svg>
