<svg width="42" height="41" viewBox="0 0 42 41" fill="none" xmlns="http://www.w3.org/2000/svg">
<path d="M30.5737 26.509C30.165 27.687 28.5427 28.6639 27.2487 28.9492C26.3635 29.1416 25.2071 29.2951 21.3145 27.6481C16.3355 25.5428 13.129 20.3792 12.8791 20.0442C12.6398 19.7091 10.8672 17.31 10.8672 14.8286C10.8672 12.3473 12.1019 11.1391 12.5996 10.6203C13.0083 10.1945 13.6839 10 14.332 10C14.5416 10 14.7301 10.0108 14.8996 10.0195C15.3973 10.0411 15.6472 10.0713 15.9754 10.8732C16.3842 11.8783 17.3796 14.3596 17.4982 14.6147C17.6189 14.8697 17.7396 15.2155 17.5702 15.5505C17.4113 15.8964 17.2715 16.0498 17.0216 16.3438C16.7717 16.6377 16.5345 16.8625 16.2846 17.1781C16.0559 17.4526 15.7975 17.7466 16.0856 18.2545C16.3736 18.7516 17.369 20.4094 18.8345 21.7409C20.7258 23.4592 22.2591 24.0082 22.8076 24.2417C23.2163 24.4146 23.7034 24.3735 24.0021 24.0493C24.3811 23.6321 24.8492 22.9405 25.3257 22.2596C25.6646 21.7711 26.0924 21.7106 26.5414 21.8835C26.9988 22.0456 29.4195 23.2668 29.9172 23.5197C30.4149 23.7748 30.7432 23.8958 30.8639 24.1098C30.9825 24.3238 30.9825 25.3288 30.5737 26.509Z" fill="white"/>
<rect x="41.1641" y="40.2949" width="40.663" height="39.795" transform="rotate(-180 41.1641 40.2949)" stroke="white"/>
</svg>
