<svg width="115" height="115" viewBox="0 0 115 115" fill="none" xmlns="http://www.w3.org/2000/svg">
<circle cx="57.5" cy="57.5" r="57" stroke="#13A0D8" stroke-linecap="square" stroke-dasharray="8 8"/>
<circle cx="58.482" cy="56.482" r="46.482" fill="#13A0D8"/>
<g clip-path="url(#clip0)" filter="url(#filter0_i)">
<path d="M77.3253 55.1132L47.8789 38.5496C47.3084 38.2294 46.6127 38.2367 46.0496 38.5643C45.4827 38.8956 45.1367 39.4993 45.1367 40.1544V73.2816C45.1367 73.9368 45.4827 74.5405 46.0496 74.8717C46.3367 75.0374 46.6569 75.122 46.9771 75.122C47.2863 75.122 47.5992 75.0447 47.8789 74.8865L77.3253 58.3229C77.9032 57.9953 78.2639 57.3843 78.2639 56.718C78.2639 56.0518 77.9032 55.4408 77.3253 55.1132Z" fill="white"/>
</g>
<defs>
<filter id="filter0_i" x="43.2969" y="38.314" width="36.8081" height="36.8081" filterUnits="userSpaceOnUse" color-interpolation-filters="sRGB">
<feFlood flood-opacity="0" result="BackgroundImageFix"/>
<feBlend mode="normal" in="SourceGraphic" in2="BackgroundImageFix" result="shape"/>
<feColorMatrix in="SourceAlpha" type="matrix" values="0 0 0 0 0 0 0 0 0 0 0 0 0 0 0 0 0 0 127 0" result="hardAlpha"/>
<feOffset/>
<feGaussianBlur stdDeviation="2.5"/>
<feComposite in2="hardAlpha" operator="arithmetic" k2="-1" k3="1"/>
<feColorMatrix type="matrix" values="0 0 0 0 0 0 0 0 0 0 0 0 0 0 0 0 0 0 0.3 0"/>
<feBlend mode="normal" in2="shape" result="effect1_innerShadow"/>
</filter>
<clipPath id="clip0">
<rect width="36.8081" height="36.8081" fill="white" transform="translate(43.2969 38.314)"/>
</clipPath>
</defs>
</svg>
