<svg width="29" height="23" viewBox="0 0 29 23" fill="none" xmlns="http://www.w3.org/2000/svg">
<path d="M12.6591 13.5691L10.8411 11.7511C10.1918 11.1018 9.08802 11.3615 8.82831 12.2056C8.63352 12.7899 7.98423 13.1146 7.39987 12.9847C6.1013 12.6601 4.34822 10.9719 4.02358 9.60841C3.82879 9.02402 4.21836 8.37474 4.80272 8.17998C5.6468 7.92026 5.90651 6.81647 5.25722 6.16718L3.43922 4.34918C2.91979 3.89468 2.14064 3.89468 1.68614 4.34918L0.452493 5.58282C-0.781154 6.8814 0.582351 10.3226 3.634 13.3743C6.68566 16.4259 10.1269 17.8544 11.4255 16.5558L12.6591 15.3221C13.1136 14.8027 13.1136 14.0236 12.6591 13.5691Z" fill="#777777"/>
<line x1="28.5" y1="0.00195315" x2="28.5" y2="22.002" stroke="#777777"/>
</svg>
