<svg width="29" height="23" viewBox="0 0 29 23" fill="none" xmlns="http://www.w3.org/2000/svg">
<path d="M6.50027 3.34814C4.51626 3.34814 2.91016 4.95425 2.91016 6.93826C2.91016 8.92227 4.51626 10.5284 6.50027 10.5284C8.48428 10.5284 10.0904 8.92227 10.0904 6.93826C10.0904 4.95425 8.48428 3.34814 6.50027 3.34814Z" fill="#777777"/>
<path d="M7.89825 10.9448H5.10174C2.28634 10.9448 0 13.2312 0 16.0466V18.1251C0 18.4463 0.24564 18.6919 0.56686 18.6919H12.4331C12.7544 18.6919 13 18.4463 13 18.1251V16.0466C13 13.2312 10.7137 10.9448 7.89825 10.9448Z" fill="#777777"/>
<line x1="28.5" y1="0.00195315" x2="28.5" y2="22.002" stroke="#777777"/>
</svg>
